# AST/ASF file generated using VICON BodyLanguage
# -----------------------------------------------
:version 1.10
:name VICON
:units
  mass 1.0
  length 0.45
  angle deg
:documentation
   .ast/.asf automatically generated from VICON data using
   VICON BodyBuilder and BodyLanguage model FoxedUp or BRILLIANT.MOD
:root
   order TX TY TZ RX RY RZ
   axis XYZ
   position 0 0 0  
   orientation 0 0 0 
:bonedata
  begin
     id 1 
     name lhipjoint
     direction 0.522423 -0.726805 0.445902 
     length 2.25074 
     axis 0 0 0  XYZ
  end
  begin
     id 2 
     name lfemur
     direction 0.34202 -0.939693 0  
     length 6.54609  
     axis 0 0 20  XYZ
    dof rx ry rz
    limits (-160.0 20.0)
           (-70.0 70.0)
           (-60.0 70.0)
  end
  begin
     id 3 
     name ltibia
     direction 0.34202 -0.939693 0   
     length 7.7528   
     axis 0 0 20   XYZ
    dof rx
    limits (-10.0 170.0)
  end
  begin
     id 4 
     name lfoot
     direction 0.143696 -0.394801 0.90746   
     length 1.73269   
     axis -90 7.62852e-016 20   XYZ
    dof rx rz
    limits (-45.0 90.0)
           (-70.0 20.0)
  end
  begin
     id 5 
     name ltoes
     direction 1.53633e-011 -4.21912e-011 1   
     length 0.858383   
     axis -90 7.62852e-016 20   XYZ
    dof rx
    limits (-90.0 20.0)
  end
  begin
     id 6 
     name rhipjoint
     direction -0.515943 -0.73016 0.447961   
     length 2.2404  
     axis 0 0 0  XYZ 
  end
  begin
     id 7 
     name rfemur
     direction -0.34202 -0.939693 0   
     length 6.84377   
     axis 0 0 -20   XYZ
    dof rx ry rz
    limits (-160.0 20.0)
           (-70.0 70.0)
           (-70.0 60.0)
  end
  begin
     id 8 
     name rtibia
     direction -0.34202 -0.939693 0   
     length 7.57596   
     axis 0 0 -20   XYZ
    dof rx
    limits (-10.0 170.0)
 end
 begin
     id 9 
     name rfoot
     direction -0.0999372 -0.274575 0.956358   
     length 1.78783  
     axis -90 -7.62852e-016 -20   XYZ
    dof rx rz
    limits (-45.0 90.0)
           (-20.0 70.0)
  end
  begin
     id 10 
     name rtoes
     direction -1.53535e-011 -4.21895e-011 1   
     length 0.898614   
     axis -90 -7.62852e-016 -20   XYZ
    dof rx
    limits (-90.0 20.0)
  end
  begin
     id 11 
     name lowerback
     direction -0.011775 0.996164 -0.0867116   
     length 1.91499   
     axis 0 0 0   XYZ
    dof rx ry rz
    limits (-20.0 45.0)
           (-30.0 30.0)
           (-30.0 30.0)
  end
  begin
     id 12 
     name upperback
     direction -0.00189771 0.999673 -0.0254833   
     length 1.92213   
     axis 0 0 0   XYZ
    dof rx ry rz
    limits (-20.0 45.0)
           (-30.0 30.0)
           (-30.0 30.0)
  end
  begin
     id 13 
     name thorax
     direction 0.00335995 0.999878 0.0152401   
     length 1.93138   
     axis 0 0 0   XYZ
    dof rx ry rz
    limits (-20.0 45.0)
           (-30.0 30.0)
           (-30.0 30.0)
  end
  begin
     id 14 
     name lowerneck
     direction 0.00233191 0.998509 0.0545404   
     length 1.59408   
     axis 0 0 0   XYZ
    dof rx ry rz
    limits (-20.0 45.0)
           (-30.0 30.0)
           (-30.0 30.0)
  end
  begin
     id 15 
     name upperneck
     direction 0.07881 0.9956 -0.0506934   
     length 1.59344   
     axis 0 0 0   XYZ
    dof rx ry rz
    limits (-20.0 45.0)
           (-30.0 30.0)
           (-30.0 30.0)
  end
  begin
     id 16
     name head
     direction 0.0261681 0.999378 -0.0236299  
     length 1.60935  
     axis 0 0 0   XYZ
    dof rx ry rz
    limits (-20.0 45.0)
           (-30.0 30.0)
           (-30.0 30.0)
  end
  begin
     id 17 
     name lclavicle
     direction 0.96643 0.252035 0.0499195  
     length 3.82153  
     axis 0 0 0   XYZ
    dof ry rz
    limits (-20.0 10.0)
           (0.0 20.0)
  end
  begin
     id 18 
     name lhumerus
     direction 1 -4.48967e-011 -2.01614e-018   
     length 4.87796   
     axis 180 -30 -90   XYZ
    dof rx ry rz
    limits (-60.0 90.0)
           (-90.0 90.0)
           (-90.0 90.0)
  end
  begin
     id 19
     name lradius
     direction 1 -4.48958e-011 3.1409e-027   
     length 3.23169   
     axis 180 -30 -90   XYZ
    dof rx
    limits (-10.0 170.0)
  end
  begin
     id 20
     name lwrist
     direction 1 -4.48924e-011 1.0365e-027   
     length 1.61584   
     axis -2.56395e-016 90 90   XYZ
    dof ry
    limits (-180.0 0.0)
 end
  begin
     id 21 
     name lhand
     direction 1 -4.49055e-011 2.09488e-027   
     length 0.731324   
     axis -1.32723e-015 90 90   XYZ
    dof rx rz
    limits (-90.0 90.0)
           (-45.0 45.0)
  end
  begin
     id 22 
     name lfingers
     direction 1 -4.48935e-011 4.14981e-027   
     length 0.589612   
     axis -2.6545e-015 90 90   XYZ
    dof rx
    limits (0.0 90.0)
  end
  begin
     id 23
     name lthumb
     direction 0.707107 -6.35097e-011 0.707107   
     length 0.846569   
     axis -90 45 5.05613e-014   XYZ
    dof rx rz
    limits (-45.0 45.0)
           (-45.0 45.0)
  end
  begin
     id 24 
     name rclavicle
     direction -0.979337 0.201016 0.0221522   
     length 3.73827  
     axis 0 0 0   XYZ 
    dof ry rz
    limits (-10.0 20.0)
           (-20.0 0.0)
  end
  begin
     id 25 
     name rhumerus
     direction -1 -4.48971e-011 1.65907e-027  
     length 4.9143   
     axis 180 30 90   XYZ
    dof rx ry rz
    limits (-90.0 60.0)
           (-90.0 90.0)
           (-90.0 90.0)
  end
  begin
     id 26 
     name rradius
     direction -1 -4.4894e-011 2.17871e-028   
     length 3.29093   
     axis 180 30 90   XYZ
    dof rx
    limits (-10.0 170.0)
  end
  begin
     id 27 
     name rwrist
     direction -1 -4.48971e-011 1.04038e-027   
     length 1.64546   
     axis -2.56395e-016 -90 -90   XYZ
    dof ry
    limits (-180.0 0.0)
  end
  begin
     id 28
     name rhand
     direction -1 -4.49017e-011 2.08843e-027   
     length 0.54512   
     axis -1.32723e-015 -90 -90   XYZ
    dof rx rz
    limits (-90.0 90.0)
           (-45.0 45.0)
  end
  begin
     id 29
     name rfingers
     direction -1 -4.48918e-011 4.1439e-027   
     length 0.43949   
     axis -2.6545e-015 -90 -90   XYZ
    dof rx
    limits (0.0 90.0)
  end
  begin
     id 30
     name rthumb
     direction -0.707107 -6.35065e-011 0.707107   
     length 0.631022   
     axis -90 -45 -5.05613e-014   XYZ
    dof rx rz
    limits (-45.0 45.0)
           (-45.0 45.0)
  end
:hierarchy
  begin
    root lhipjoint rhipjoint lowerback
    lhipjoint lfemur
    lfemur ltibia
    ltibia lfoot
    lfoot ltoes
    rhipjoint rfemur
    rfemur rtibia
    rtibia rfoot
    rfoot rtoes
    lowerback upperback
    upperback thorax
    thorax lowerneck lclavicle rclavicle
    lowerneck upperneck
    upperneck head
    lclavicle lhumerus
    lhumerus lradius
    lradius lwrist
    lwrist lhand lthumb
    lhand lfingers
    rclavicle rhumerus
    rhumerus rradius
    rradius rwrist
    rwrist rhand rthumb
    rhand rfingers
  end

#!OML:ASF H:\BreakDance\Project 1\Capture day 1\Session 1\Male.ASF
:FULLY-SPECIFIED
:DEGREES
636
root 9.00768 10.9357 5.29314 221.799 -6.4838 -264.535
lowerback 18.0336 4.51806 -1.70436
upperback 11.2363 4.94128 -3.46969
thorax 2.18504 2.23968 -3.49646
lowerneck -7.94183 0.720015 -1.16837
upperneck 7.11139 2.10475 -15.7575
head 3.6189 0.0711293 -4.54073
rclavicle 9.14409e-014 1.52667e-013
rhumerus -41.0485 -26.6498 -15.6279
rradius 29.0306
rwrist -5.82086
rhand -48.9353 -264.067
rfingers 7.12502
rthumb -21.5669 124.752
lclavicle 9.14409e-014 1.52667e-013
lhumerus -33.0072 -25.4677 43.224
lradius 30.9454
lwrist 8.05807
lhand -49.5052 19.4297
lfingers 7.12502
lthumb -22.1141 48.185
rfemur -59.561 -18.171 -1.06504
rtibia 79.8768
rfoot -16.5133 -6.94992
rtoes -0.778047
lfemur -76.2766 2.64318 -24.0273
ltibia 94.9946
lfoot 7.64144 -9.27824
ltoes -43.2936
637
root 9.03214 10.8579 5.23773 220.854 -8.74806 -266.576
lowerback 18.096 4.30734 -1.78847
upperback 11.4591 4.62252 -3.44909
thorax 2.37126 2.0561 -3.37684
lowerneck -7.81199 0.534275 -0.877561
upperneck 8.0245 1.91409 -15.3096
head 3.85056 -0.0292522 -4.47008
rclavicle 5.08889e-014 -1.90833e-014
rhumerus -43.2442 -26.1915 -15.4381
rradius 28.9905
rwrist -5.91738
rhand -48.846 -262.927
rfingers 7.12502
rthumb -21.4811 125.902
lclavicle 5.08889e-014 -1.90833e-014
lhumerus -33.0254 -26.8483 45.4592
lradius 30.7361
lwrist 7.66357
lhand -49.9423 18.2148
lfingers 7.12502
lthumb -22.5338 46.9199
rfemur -61.0959 -17.8854 -2.30816
rtibia 77.2699
rfoot -16.358 -7.03507
rtoes -0.470758
lfemur -74.0361 2.61058 -20.1259
ltibia 93.1413
lfoot 6.93902 -8.97657
ltoes -41.5304
638
root 9.05233 10.7695 5.17692 220.007 -11.2712 -268.381
lowerback 18.0749 4.05209 -1.75339
upperback 11.6482 4.26987 -3.38681
thorax 2.56823 1.86178 -3.27039
lowerneck -7.74199 0.374198 -0.504077
upperneck 8.97122 1.7489 -14.8929
head 4.1064 -0.117302 -4.42376
rclavicle 8.5875e-014 1.145e-013
rhumerus -45.3545 -25.8994 -15.353
rradius 28.8629
rwrist -5.82987
rhand -48.7647 -261.906
rfingers 7.12502
rthumb -21.4031 126.932
lclavicle 8.5875e-014 1.145e-013
lhumerus -33.1605 -28.2775 47.7946
lradius 30.4704
lwrist 7.48183
lhand -49.826 17.2985
lfingers 7.12502
lthumb -22.4221 46.017
rfemur -62.3664 -17.8148 -3.46202
rtibia 74.2298
rfoot -16.3581 -7.09024
rtoes -0.0518868
lfemur -71.8601 2.91148 -16.4499
ltibia 90.9314
lfoot 6.43768 -8.41228
ltoes -39.0959
639
root 9.06444 10.6702 5.11154 219.169 -14.0169 -269.901
lowerback 18.0201 3.77521 -1.603
upperback 11.8239 3.90842 -3.2615
thorax 2.77092 1.66847 -3.15982
lowerneck -7.70507 0.250287 -0.0950037
upperneck 9.90421 1.61857 -14.4852
head 4.3677 -0.184147 -4.38557
rclavicle -1.90833e-014 1.43125e-013
rhumerus -47.3845 -25.741 -15.3286
rradius 28.6652
rwrist -5.58223
rhand -48.6906 -261.083
rfingers 7.12502
rthumb -21.3318 127.763
lclavicle -1.90833e-014 1.43125e-013
lhumerus -33.4178 -29.6455 50.2543
lradius 30.1329
lwrist 7.42191
lhand -49.212 16.9491
lfingers 7.12502
lthumb -21.8326 45.7376
rfemur -63.3085 -17.8446 -4.52691
rtibia 70.787
rfoot -16.5543 -7.22387
rtoes 0.508351
lfemur -69.695 3.62792 -12.9669
ltibia 88.3916
lfoot 6.1388 -7.76822
ltoes -36.4826
640
root 9.06418 10.5607 5.04156 218.254 -16.9218 -271.127
lowerback 17.9794 3.49908 -1.3745
upperback 11.9978 3.55749 -3.06669
thorax 2.96534 1.4831 -3.02327
lowerneck -7.65382 0.180711 0.284076
upperneck 10.8044 1.54642 -14.0345
head 4.62165 -0.21453 -4.3256
rclavicle 5.725e-014 5.08889e-014
rhumerus -49.3432 -25.6719 -15.3266
rradius 28.4221
rwrist -5.20424
rhand -48.6405 -260.465
rfingers 7.12502
rthumb -21.2837 128.386
lclavicle 5.725e-014 5.08889e-014
lhumerus -33.8386 -30.9361 52.8933
lradius 29.7145
lwrist 7.40726
lhand -48.1831 17.1652
lfingers 7.12502
lthumb -20.8444 46.0654
rfemur -63.8842 -17.8843 -5.56748
rtibia 66.9849
rfoot -16.8222 -7.51913
rtoes 1.34538
lfemur -67.4774 4.7793 -9.68412
ltibia 85.5448
lfoot 6.02082 -7.14612
ltoes -34.0741
641
root 9.04948 10.4434 4.96622 217.209 -19.8658 -272.103
lowerback 17.9766 3.25102 -1.16709
upperback 12.1776 3.23561 -2.82584
thorax 3.14457 1.3088 -2.83369
lowerneck -7.50901 0.170718 0.583264
upperneck 11.5962 1.53086 -13.5049
head 4.83103 -0.202832 -4.22136
rclavicle -1.11319e-014 4.77083e-014
rhumerus -51.2217 -25.617 -15.3524
rradius 28.1598
rwrist -4.74752
rhand -48.6152 -259.98
rfingers 7.12502
rthumb -21.2594 128.874
lclavicle -1.11319e-014 4.77083e-014
lhumerus -34.4882 -32.1826 55.7711
lradius 29.2317
lwrist 7.41033
lhand -46.9214 17.936
lfingers 7.12502
lthumb -19.6317 46.9648
rfemur -64.115 -17.9028 -6.69073
rtibia 62.9016
rfoot -17.1422 -8.10224
rtoes 2.2488
lfemur -65.1415 6.34076 -6.67885
ltibia 82.4044
lfoot 6.18685 -6.54582
ltoes -31.9347
642
root 9.02037 10.3228 4.88386 216.035 -22.733 -272.935
lowerback 18.0183 3.04169 -1.09634
upperback 12.3559 2.93914 -2.59302
thorax 3.29511 1.13718 -2.58295
lowerneck -7.18401 0.208626 0.817845
upperneck 12.2168 1.54832 -12.9133
head 4.95958 -0.156955 -4.08003
rclavicle -1.27222e-014 -1.20861e-013
rhumerus -53.0049 -25.472 -15.4663
rradius 27.8951
rwrist -4.27692
rhand -48.5898 -259.513
rfingers 7.12502
rthumb -21.235 129.344
lclavicle -1.27222e-014 -1.20861e-013
lhumerus -35.4417 -33.4027 58.9069
lradius 28.7141
lwrist 7.45292
lhand -45.6332 18.8704
lfingers 7.12502
lthumb -18.3929 48.0208
rfemur -63.9965 -17.8519 -8.08253
rtibia 58.5811
rfoot -17.4102 -9.08529
rtoes 3.82042
lfemur -62.648 8.23028 -4.06228
ltibia 78.9908
lfoot 6.66181 -5.80932
ltoes -30.0943
643
root 8.97947 10.2027 4.79374 214.734 -25.4695 -273.623
lowerback 18.1064 2.87472 -1.15187
upperback 12.5521 2.67281 -2.41809
thorax 3.44292 0.971648 -2.32971
lowerneck -6.84415 0.274477 1.04249
upperneck 12.7348 1.58404 -12.2773
head 5.05582 -0.0927831 -3.91982
rclavicle 4.77083e-015 8.90555e-014
rhumerus -54.6691 -25.3266 -15.7167
rradius 27.597
rwrist -3.75528
rhand -48.5533 -258.993
rfingers 7.12502
rthumb -21.2 129.868
lclavicle 4.77083e-015 8.90555e-014
lhumerus -36.6215 -34.5437 62.1984
lradius 28.162
lwrist 7.58697
lhand -44.5106 19.6559
lfingers 7.12502
lthumb -17.3127 48.9048
rfemur -63.5811 -17.7135 -9.75202
rtibia 54.0893
rfoot -17.6932 -10.5163
rtoes 5.43758
lfemur -59.9997 10.4068 -1.80635
ltibia 75.3412
lfoot 7.46116 -4.93488
ltoes -28.66
644
root 8.92881 10.0861 4.6958 213.232 -28.0808 -274.096
lowerback 18.2442 2.7431 -1.2511
upperback 12.7864 2.43718 -2.31437
thorax 3.6139 0.817079 -2.13409
lowerneck -6.60595 0.354389 1.28865
upperneck 13.2717 1.62969 -11.5906
head 5.17667 -0.0216095 -3.74748
rclavicle 4.13472e-014 4.45278e-014
rhumerus -56.201 -25.265 -16.1087
rradius 27.2407
rwrist -3.1042
rhand -48.511 -258.407
rfingers 7.12502
rthumb -21.1593 130.458
lclavicle 4.13472e-014 4.45278e-014
lhumerus -37.9728 -35.5 65.5394
lradius 27.58
lwrist 7.84003
lhand -43.6736 19.9441
lfingers 7.12502
lthumb -16.5069 49.2619
rfemur -62.8888 -17.4223 -11.6314
rtibia 49.4796
rfoot -17.9795 -12.3366
rtoes 7.1674
lfemur -57.1774 12.8474 0.227683
ltibia 71.5157
lfoot 8.54181 -3.95699
ltoes -27.4659
645
root 8.86822 9.97486 4.59106 211.502 -30.5226 -274.343
lowerback 18.4239 2.6482 -1.39592
upperback 13.0569 2.23365 -2.29623
thorax 3.81017 0.674043 -2.01024
lowerneck -6.50882 0.437039 1.54736
upperneck 13.903 1.67568 -10.8704
head 5.35183 0.0464639 -3.56876
rclavicle 5.40694e-014 9.85972e-014
rhumerus -57.6051 -25.3249 -16.6114
rradius 26.849
rwrist -2.25926
rhand -48.4685 -257.763
rfingers 7.12502
rthumb -21.1185 131.107
lclavicle 5.40694e-014 9.85972e-014
lhumerus -39.4505 -36.1124 68.8338
lradius 26.9735
lwrist 8.16894
lhand -43.1393 19.5805
lfingers 7.12502
lthumb -15.9925 48.9404
rfemur -61.9679 -16.9266 -13.7206
rtibia 44.8206
rfoot -18.3412 -14.5629
rtoes 8.94861
lfemur -54.1949 15.4933 2.12283
ltibia 67.5916
lfoot 9.83416 -2.94658
ltoes -26.486
646
root 8.79683 9.8697 4.48058 209.506 -32.8457 -274.332
lowerback 18.6344 2.57175 -1.5123
upperback 13.3608 2.04938 -2.34804
thorax 4.03586 0.540607 -1.98113
lowerneck -6.56705 0.533452 1.82577
upperneck 14.711 1.73667 -10.1187
head 5.6108 0.117102 -3.38543
rclavicle 3.49861e-014 -6.36111e-015
rhumerus -58.9393 -25.4924 -17.1929
rradius 26.4817
rwrist -1.22521
rhand -48.4405 -257.055
rfingers 7.12502
rthumb -21.0917 131.818
lclavicle 3.49861e-014 -6.36111e-015
lhumerus -40.993 -36.2893 71.9862
lradius 26.3558
lwrist 8.49539
lhand -42.867 18.775
lfingers 7.12502
lthumb -15.7302 48.1557
rfemur -60.8274 -16.1863 -15.994
rtibia 40.1943
rfoot -18.7968 -17.2253
rtoes 11.1081
lfemur -51.0922 18.2459 4.01951
ltibia 63.6445
lfoot 11.2557 -1.99013
ltoes -25.8152
